<svg version="1" xmlns="http://www.w3.org/2000/svg" width="933.333" height="933.333" viewBox="0 0 700.000000 700.000000"><path d="M496.5 146.1c-4.4.3-9.7 1.3-11.7 2.2-21.6 9.1-24.1 38.4-4.3 51 7.4 4.7 9.5 4.9 66.3 4.9h53.5L497 307.5 393.7 410.8l-64.1-64c-71.6-71.6-68.8-69.3-82.1-69.2-13.1.1-6.2-6.1-129.6 117.3C27.2 485.6 5.7 507.6 3.4 512c-2.3 4.6-2.8 6.7-2.7 13 0 12.1 5.5 21 16.3 26.3 6.5 3.1 17.6 3.1 24.5-.2 4-1.9 24.5-21.8 105.7-103L248 347.5l65.2 65.1c63.1 62.8 65.5 65.1 71 66.8 7 2.3 16.2 1.7 22.7-1.5 3.3-1.5 35.4-33.1 119.4-117 63.2-63.2 115-114.9 115.1-114.9.1 0 .2 23.3.2 51.7 0 28.5.3 53.9.7 56.5 3.4 26.3 38.7 33.5 53.2 10.8 4.6-7.2 4.6-9.1 4.3-106-.3-90.5-.3-91.6-2.4-96-3-6.5-9.5-12.5-16.2-15-5.6-2.1-6.7-2.2-91.2-2.3-47-.1-89.1.1-93.5.4z"/></svg>